<svg width="13" height="15" viewBox="0 0 13 15" fill="none" xmlns="http://www.w3.org/2000/svg">
<path d="M11.6424 5.98926L11.6436 5.99154C11.661 6.02569 11.6687 6.06399 11.6658 6.10222C11.6628 6.14022 11.6495 6.17668 11.6273 6.20765C11.6272 6.20783 11.6271 6.20802 11.6269 6.2082L5.96192 13.9976C5.96187 13.9977 5.96182 13.9977 5.96176 13.9978C5.94239 14.0243 5.91705 14.0458 5.8878 14.0606C5.85964 14.0748 5.82863 14.0825 5.79711 14.083C5.77234 14.0821 5.74778 14.0781 5.72401 14.0711C5.68362 14.0572 5.64845 14.0312 5.62331 13.9966C5.59749 13.961 5.58357 13.9182 5.58354 13.8743V9.62467V9.12467H5.08354H1.55593C1.51812 9.12165 1.4818 9.10835 1.45092 9.08615C1.41799 9.06246 1.39268 9.02967 1.37811 8.99181L1.37108 8.97352L1.36263 8.95584C1.34681 8.92272 1.34002 8.88601 1.34295 8.84943C1.34577 8.81422 1.35749 8.78032 1.37698 8.75092L7.03853 0.966295C7.0386 0.966196 7.03867 0.966096 7.03874 0.965997C7.06471 0.930592 7.10119 0.904291 7.143 0.890853C7.18492 0.877379 7.23003 0.877533 7.27186 0.891295L7.27186 0.891299L7.27372 0.891904C7.31723 0.90603 7.35488 0.934085 7.38086 0.971737C7.40684 1.00939 7.41971 1.05455 7.41747 1.10024L7.41687 1.11245V1.12467V5.37467V5.87467H7.91687H11.4576C11.4959 5.87489 11.5333 5.88565 11.5659 5.90578C11.5986 5.92601 11.6251 5.9549 11.6424 5.98926Z" stroke="#009EFF"/>
</svg>
