<svg width="18" height="18" viewBox="0 0 18 18" fill="none" xmlns="http://www.w3.org/2000/svg">
<path d="M9 7.5V2M9 2L11.5 4.5M9 2L6.5 4.5" stroke="#009EFF" stroke-linecap="round" stroke-linejoin="round"/>
<path d="M5.80626 6.65254C5.01269 7.28095 4.42328 8.13056 4.11257 9.09395C3.80186 10.0573 3.78381 11.0912 4.06069 12.0649C4.33758 13.0385 4.89696 13.9082 5.66811 14.5639C6.43926 15.2196 7.38753 15.632 8.39302 15.7488C9.39851 15.8656 10.4161 15.6816 11.317 15.2201C12.2179 14.7585 12.9617 14.0402 13.4544 13.156C13.9471 12.2717 14.1665 11.2612 14.0849 10.2523C14.0307 9.58235 13.8451 8.92966 13.5387 8.33147C13.2322 7.73329 12.811 7.20131 12.299 6.76592" stroke="#009EFF" stroke-linecap="round"/>
</svg>
