<svg width="853" height="506" viewBox="0 0 853 506" fill="none" xmlns="http://www.w3.org/2000/svg">
<path d="M761.225 501C763.421 501 764.699 499.686 764.699 497.76C764.699 496.32 763.637 495.006 762.359 494.808C763.457 494.574 764.465 493.566 764.465 492.054C764.465 490.254 763.187 488.994 761.099 488.994H755.753V501H761.225ZM760.847 494.196H757.247V490.326H760.847C762.197 490.326 762.917 491.19 762.917 492.27C762.917 493.368 762.197 494.196 760.847 494.196ZM760.919 499.668H757.247V495.528H760.919C762.395 495.528 763.151 496.5 763.151 497.598C763.151 498.876 762.323 499.668 760.919 499.668ZM773.805 501V495.024C773.805 492.918 772.275 492.09 770.439 492.09C769.017 492.09 767.901 492.558 766.965 493.53L767.595 494.466C768.369 493.638 769.215 493.26 770.259 493.26C771.519 493.26 772.455 493.926 772.455 495.096V496.662C771.753 495.852 770.763 495.474 769.575 495.474C768.099 495.474 766.533 496.392 766.533 498.336C766.533 500.226 768.099 501.216 769.575 501.216C770.745 501.216 771.735 500.802 772.455 500.01V501H773.805ZM770.061 500.244C768.801 500.244 767.919 499.452 767.919 498.354C767.919 497.238 768.801 496.446 770.061 496.446C771.015 496.446 771.933 496.806 772.455 497.526V499.164C771.933 499.884 771.015 500.244 770.061 500.244ZM778.707 501.216C779.499 501.216 779.985 500.982 780.327 500.658L779.931 499.65C779.751 499.848 779.391 500.01 779.013 500.01C778.419 500.01 778.131 499.542 778.131 498.894V493.494H779.895V492.306H778.131V489.93H776.781V492.306H775.341V493.494H776.781V499.182C776.781 500.478 777.429 501.216 778.707 501.216ZM783.998 501.216C784.79 501.216 785.276 500.982 785.618 500.658L785.222 499.65C785.042 499.848 784.682 500.01 784.304 500.01C783.71 500.01 783.422 499.542 783.422 498.894V493.494H785.186V492.306H783.422V489.93H782.072V492.306H780.632V493.494H782.072V499.182C782.072 500.478 782.72 501.216 783.998 501.216ZM791.017 501.216C792.439 501.216 793.609 500.748 794.473 499.884L793.825 499.002C793.141 499.704 792.133 500.1 791.143 500.1C789.271 500.1 788.119 498.732 788.011 497.094H795.049V496.752C795.049 494.142 793.501 492.09 790.873 492.09C788.389 492.09 786.589 494.124 786.589 496.644C786.589 499.362 788.443 501.216 791.017 501.216ZM793.717 496.104H788.011C788.083 494.772 789.001 493.206 790.855 493.206C792.835 493.206 793.699 494.808 793.717 496.104ZM798.586 501V494.844C798.982 494.142 800.116 493.458 800.944 493.458C801.16 493.458 801.322 493.476 801.484 493.512V492.126C800.296 492.126 799.288 492.792 798.586 493.71V492.306H797.236V501H798.586ZM802.691 504.402C802.943 504.474 803.393 504.528 803.681 504.528C804.833 504.51 805.715 504.024 806.237 502.764L810.593 492.306H809.117L806.237 499.434L803.339 492.306H801.881L805.517 501.09L804.941 502.404C804.635 503.124 804.239 503.322 803.645 503.322C803.429 503.322 803.105 503.268 802.907 503.178L802.691 504.402Z" fill="#999999"/>
<path d="M743.584 473.42C747.889 473.42 751.459 470.55 751.459 465.895C751.459 461.03 747.924 458.44 744.004 458.44C741.589 458.44 739.594 459.49 738.439 460.61V451.475H749.919V449.655H736.444V461.905L737.949 462.535C739.664 460.96 741.484 460.26 743.619 460.26C746.979 460.26 749.429 462.43 749.429 465.965C749.429 469.15 746.944 471.6 743.584 471.6C740.574 471.6 738.544 470.41 737.039 468.275L735.709 469.605C737.319 471.915 739.699 473.42 743.584 473.42ZM763.955 473.42C768.26 473.42 771.83 470.55 771.83 465.895C771.83 461.03 768.295 458.44 764.375 458.44C761.96 458.44 759.965 459.49 758.81 460.61V451.475H770.29V449.655H756.815V461.905L758.32 462.535C760.035 460.96 761.855 460.26 763.99 460.26C767.35 460.26 769.8 462.43 769.8 465.965C769.8 469.15 767.315 471.6 763.955 471.6C760.945 471.6 758.915 470.41 757.41 468.275L756.08 469.605C757.69 471.915 760.07 473.42 763.955 473.42ZM781.736 473V449.655H779.916L774.771 455.08L775.996 456.375L779.741 452.385V473H781.736ZM807.658 473L814.308 449.655H812.068L806.433 470.2L800.728 449.655H798.908L793.168 470.2L787.533 449.655H785.293L791.978 473H794.218L799.818 452.945L805.418 473H807.658ZM831.044 473V461.1C831.044 457.285 829.154 455.675 825.724 455.675C823.274 455.675 820.859 457.18 819.634 458.65V449.655H817.814V473H819.634V460.225C820.719 458.685 822.959 457.32 825.129 457.32C827.579 457.32 829.224 458.23 829.224 461.485V473H831.044Z" fill="url(#paint0_linear_0_1)"/>
<g clip-path="url(#clip0_0_1)">
<path d="M773.68 341.24L773.68 347.48L765.36 347.48C760.765 347.48 757.04 351.205 757.04 355.8L757.04 422.36C757.04 426.955 760.765 430.68 765.36 430.68L798.64 430.68C803.235 430.68 806.96 426.955 806.96 422.36L806.96 355.8C806.96 351.205 803.235 347.48 798.64 347.48L790.32 347.48L790.32 341.24L773.68 341.24Z" stroke="#999999" stroke-width="2" stroke-miterlimit="10" stroke-linecap="round" stroke-linejoin="round"/>
<path d="M783.17 410.294C783.373 410.741 783.872 410.974 784.346 410.844C784.82 410.714 785.128 410.258 785.074 409.769L783.117 392.16L790.32 392.16C790.66 392.16 790.977 391.987 791.161 391.701C791.345 391.415 791.371 391.056 791.231 390.746L780.831 367.866C780.627 367.419 780.129 367.185 779.655 367.316C779.181 367.446 778.872 367.902 778.926 368.39L780.883 386L773.68 386C773.34 386 773.023 386.173 772.839 386.458C772.655 386.744 772.629 387.104 772.77 387.414L783.17 410.294Z" stroke="#009EFF" stroke-width="2" stroke-linejoin="round"/>
<path d="M762 357V387" stroke="#009EFF" stroke-width="2" stroke-linecap="round"/>
<path d="M762 393V404" stroke="#009EFF" stroke-width="2" stroke-linecap="round"/>
</g>
<path d="M490.975 501V495.528H497.221V494.196H490.975V490.326H497.347V488.994H489.481V501H490.975ZM506.11 501V495.024C506.11 492.918 504.58 492.09 502.744 492.09C501.322 492.09 500.206 492.558 499.27 493.53L499.9 494.466C500.674 493.638 501.52 493.26 502.564 493.26C503.824 493.26 504.76 493.926 504.76 495.096V496.662C504.058 495.852 503.068 495.474 501.88 495.474C500.404 495.474 498.838 496.392 498.838 498.336C498.838 500.226 500.404 501.216 501.88 501.216C503.05 501.216 504.04 500.802 504.76 500.01V501H506.11ZM502.366 500.244C501.106 500.244 500.224 499.452 500.224 498.354C500.224 497.238 501.106 496.446 502.366 496.446C503.32 496.446 504.238 496.806 504.76 497.526V499.164C504.238 499.884 503.32 500.244 502.366 500.244ZM511.57 501.216C513.82 501.216 514.99 500.046 514.99 498.588C514.99 495.204 509.608 496.464 509.608 494.556C509.608 493.782 510.346 493.188 511.534 493.188C512.65 493.188 513.604 493.656 514.126 494.286L514.756 493.35C514.054 492.648 513.01 492.09 511.534 492.09C509.464 492.09 508.294 493.242 508.294 494.592C508.294 497.814 513.676 496.518 513.676 498.624C513.676 499.488 512.956 500.118 511.624 500.118C510.436 500.118 509.338 499.542 508.762 498.876L508.06 499.848C508.942 500.784 510.148 501.216 511.57 501.216ZM519.379 501.216C520.171 501.216 520.657 500.982 520.999 500.658L520.603 499.65C520.423 499.848 520.063 500.01 519.685 500.01C519.091 500.01 518.803 499.542 518.803 498.894V493.494H520.567V492.306H518.803V489.93H517.453V492.306H516.013V493.494H517.453V499.182C517.453 500.478 518.101 501.216 519.379 501.216ZM532.857 501.216C534.981 501.216 536.421 500.208 537.429 498.84L536.151 498.138C535.467 499.164 534.225 499.884 532.857 499.884C530.229 499.884 528.231 497.85 528.231 495.006C528.231 492.144 530.229 490.128 532.857 490.128C534.225 490.128 535.467 490.866 536.151 491.874L537.411 491.172C536.457 489.822 534.981 488.796 532.857 488.796C529.401 488.796 526.683 491.316 526.683 495.006C526.683 498.696 529.401 501.216 532.857 501.216ZM546.515 501V494.862C546.515 492.972 545.561 492.09 543.743 492.09C542.429 492.09 541.241 492.846 540.629 493.566V488.994H539.279V501H540.629V494.646C541.151 493.944 542.159 493.296 543.203 493.296C544.373 493.296 545.165 493.746 545.165 495.276V501H546.515ZM555.996 501V495.024C555.996 492.918 554.466 492.09 552.63 492.09C551.208 492.09 550.092 492.558 549.156 493.53L549.786 494.466C550.56 493.638 551.406 493.26 552.45 493.26C553.71 493.26 554.646 493.926 554.646 495.096V496.662C553.944 495.852 552.954 495.474 551.766 495.474C550.29 495.474 548.724 496.392 548.724 498.336C548.724 500.226 550.29 501.216 551.766 501.216C552.936 501.216 553.926 500.802 554.646 500.01V501H555.996ZM552.252 500.244C550.992 500.244 550.11 499.452 550.11 498.354C550.11 497.238 550.992 496.446 552.252 496.446C553.206 496.446 554.124 496.806 554.646 497.526V499.164C554.124 499.884 553.206 500.244 552.252 500.244ZM560.053 501V494.844C560.449 494.142 561.583 493.458 562.411 493.458C562.627 493.458 562.789 493.476 562.951 493.512V492.126C561.763 492.126 560.755 492.792 560.053 493.71V492.306H558.703V501H560.053ZM568.136 504.528C570.26 504.528 572.276 503.628 572.276 500.748V492.306H570.926V493.62C570.224 492.666 569.18 492.09 568.01 492.09C565.724 492.09 564.14 493.818 564.14 496.608C564.14 499.416 565.742 501.108 568.01 501.108C569.234 501.108 570.296 500.442 570.926 499.56V500.802C570.926 502.71 569.576 503.412 568.136 503.412C566.894 503.412 566.03 503.088 565.31 502.224L564.626 503.232C565.652 504.24 566.66 504.528 568.136 504.528ZM568.334 499.92C566.588 499.92 565.544 498.516 565.544 496.608C565.544 494.682 566.588 493.296 568.334 493.296C569.414 493.296 570.458 493.944 570.926 494.7V498.498C570.458 499.254 569.414 499.92 568.334 499.92ZM575.646 491.064C576.15 491.064 576.564 490.668 576.564 490.164C576.564 489.66 576.15 489.246 575.646 489.246C575.16 489.246 574.746 489.66 574.746 490.164C574.746 490.668 575.16 491.064 575.646 491.064ZM576.33 501V492.306H574.98V501H576.33ZM586.241 501V494.898C586.241 493.008 585.287 492.09 583.469 492.09C582.173 492.09 580.985 492.846 580.373 493.566V492.306H579.023V501H580.373V494.646C580.877 493.944 581.885 493.296 582.947 493.296C584.117 493.296 584.891 493.782 584.891 495.312V501H586.241ZM592.429 504.528C594.553 504.528 596.569 503.628 596.569 500.748V492.306H595.219V493.62C594.517 492.666 593.473 492.09 592.303 492.09C590.017 492.09 588.433 493.818 588.433 496.608C588.433 499.416 590.035 501.108 592.303 501.108C593.527 501.108 594.589 500.442 595.219 499.56V500.802C595.219 502.71 593.869 503.412 592.429 503.412C591.187 503.412 590.323 503.088 589.603 502.224L588.919 503.232C589.945 504.24 590.953 504.528 592.429 504.528ZM592.627 499.92C590.881 499.92 589.837 498.516 589.837 496.608C589.837 494.682 590.881 493.296 592.627 493.296C593.707 493.296 594.751 493.944 595.219 494.7V498.498C594.751 499.254 593.707 499.92 592.627 499.92Z" fill="#999999"/>
<path d="M531.081 473.42C536.051 473.42 538.921 469.78 538.921 465.965C538.921 460.995 535.596 458.58 531.396 458.58C528.246 458.58 525.551 460.855 524.571 462.465C524.536 462.115 524.536 461.73 524.536 461.38C524.536 456.41 526.391 451.125 531.431 451.125C533.986 451.125 535.421 452.21 536.541 453.75L537.731 452.28C536.331 450.53 534.476 449.305 531.431 449.305C524.991 449.305 522.506 455.36 522.506 461.345C522.506 467.61 524.781 473.42 531.081 473.42ZM531.011 471.6C526.636 471.6 524.956 467.54 524.676 464.355C526.006 462.01 528.491 460.365 531.046 460.365C534.406 460.365 536.891 462.185 536.891 466C536.891 468.52 535.001 471.6 531.011 471.6ZM562.65 473V449.655H560.62V460.085H545.815V449.655H543.82V473H545.815V461.905H560.62V473H562.65Z" fill="url(#paint1_linear_0_1)"/>
<g clip-path="url(#clip1_0_1)">
<path d="M569.793 358.207C575.092 363.506 578.701 370.258 580.163 377.608C581.625 384.958 580.874 392.577 578.007 399.5C575.139 406.424 570.282 412.342 564.051 416.505C557.82 420.669 550.494 422.891 543 422.891" stroke="#009EFF" stroke-width="2" stroke-linecap="round"/>
<path d="M543 347.109C549.651 347.109 556.185 348.86 561.946 352.185" stroke="#009EFF" stroke-width="2" stroke-linecap="round"/>
<circle cx="543" cy="385" r="44" stroke="#999999" stroke-width="2"/>
<circle cx="543" cy="385" r="4" fill="#999999"/>
<rect x="542" y="353" width="2" height="32" rx="1" fill="#999999"/>
<rect x="542" y="385.732" width="2" height="24.9611" rx="1" transform="rotate(-60 542 385.732)" fill="#999999"/>
</g>
<path d="M246.33 501L249.75 488.994H248.094L245.448 499.002L242.694 488.994H241.452L238.698 499.002L236.034 488.994H234.378L237.798 501H239.418L242.064 491.316L244.71 501H246.33ZM257.432 501V495.024C257.432 492.918 255.902 492.09 254.066 492.09C252.644 492.09 251.528 492.558 250.592 493.53L251.222 494.466C251.996 493.638 252.842 493.26 253.886 493.26C255.146 493.26 256.082 493.926 256.082 495.096V496.662C255.38 495.852 254.39 495.474 253.202 495.474C251.726 495.474 250.16 496.392 250.16 498.336C250.16 500.226 251.726 501.216 253.202 501.216C254.372 501.216 255.362 500.802 256.082 500.01V501H257.432ZM253.688 500.244C252.428 500.244 251.546 499.452 251.546 498.354C251.546 497.238 252.428 496.446 253.688 496.446C254.642 496.446 255.56 496.806 256.082 497.526V499.164C255.56 499.884 254.642 500.244 253.688 500.244ZM262.334 501.216C263.126 501.216 263.612 500.982 263.954 500.658L263.558 499.65C263.378 499.848 263.018 500.01 262.64 500.01C262.046 500.01 261.758 499.542 261.758 498.894V493.494H263.522V492.306H261.758V489.93H260.408V492.306H258.968V493.494H260.408V499.182C260.408 500.478 261.056 501.216 262.334 501.216ZM269.353 501.216C270.775 501.216 271.945 500.748 272.809 499.884L272.161 499.002C271.477 499.704 270.469 500.1 269.479 500.1C267.607 500.1 266.455 498.732 266.347 497.094H273.385V496.752C273.385 494.142 271.837 492.09 269.209 492.09C266.725 492.09 264.925 494.124 264.925 496.644C264.925 499.362 266.779 501.216 269.353 501.216ZM272.053 496.104H266.347C266.419 494.772 267.337 493.206 269.191 493.206C271.171 493.206 272.035 494.808 272.053 496.104ZM276.922 501V494.844C277.318 494.142 278.452 493.458 279.28 493.458C279.496 493.458 279.658 493.476 279.82 493.512V492.126C278.632 492.126 277.624 492.792 276.922 493.71V492.306H275.572V501H276.922ZM285.023 497.238V496.05H280.703V497.238H285.023ZM295.676 501L292.436 496.104C294.074 495.96 295.55 494.772 295.55 492.612C295.55 490.398 293.984 488.994 291.788 488.994H286.964V501H288.458V496.23H290.852L293.912 501H295.676ZM291.608 494.916H288.458V490.326H291.608C293.03 490.326 294.002 491.262 294.002 492.612C294.002 493.962 293.03 494.916 291.608 494.916ZM301.24 501.216C302.662 501.216 303.832 500.748 304.696 499.884L304.048 499.002C303.364 499.704 302.356 500.1 301.366 500.1C299.494 500.1 298.342 498.732 298.234 497.094H305.272V496.752C305.272 494.142 303.724 492.09 301.096 492.09C298.612 492.09 296.812 494.124 296.812 496.644C296.812 499.362 298.666 501.216 301.24 501.216ZM303.94 496.104H298.234C298.306 494.772 299.224 493.206 301.078 493.206C303.058 493.206 303.922 494.808 303.94 496.104ZM310.212 501.216C312.462 501.216 313.632 500.046 313.632 498.588C313.632 495.204 308.25 496.464 308.25 494.556C308.25 493.782 308.988 493.188 310.176 493.188C311.292 493.188 312.246 493.656 312.768 494.286L313.398 493.35C312.696 492.648 311.652 492.09 310.176 492.09C308.106 492.09 306.936 493.242 306.936 494.592C306.936 497.814 312.318 496.518 312.318 498.624C312.318 499.488 311.598 500.118 310.266 500.118C309.078 500.118 307.98 499.542 307.404 498.876L306.702 499.848C307.584 500.784 308.79 501.216 310.212 501.216ZM316.492 491.064C316.996 491.064 317.41 490.668 317.41 490.164C317.41 489.66 316.996 489.246 316.492 489.246C316.006 489.246 315.592 489.66 315.592 490.164C315.592 490.668 316.006 491.064 316.492 491.064ZM317.176 501V492.306H315.826V501H317.176ZM322.623 501.216C324.873 501.216 326.043 500.046 326.043 498.588C326.043 495.204 320.661 496.464 320.661 494.556C320.661 493.782 321.399 493.188 322.587 493.188C323.703 493.188 324.657 493.656 325.179 494.286L325.809 493.35C325.107 492.648 324.063 492.09 322.587 492.09C320.517 492.09 319.347 493.242 319.347 494.592C319.347 497.814 324.729 496.518 324.729 498.624C324.729 499.488 324.009 500.118 322.677 500.118C321.489 500.118 320.391 499.542 319.815 498.876L319.113 499.848C319.995 500.784 321.201 501.216 322.623 501.216ZM330.432 501.216C331.224 501.216 331.71 500.982 332.052 500.658L331.656 499.65C331.476 499.848 331.116 500.01 330.738 500.01C330.144 500.01 329.856 499.542 329.856 498.894V493.494H331.62V492.306H329.856V489.93H328.506V492.306H327.066V493.494H328.506V499.182C328.506 500.478 329.154 501.216 330.432 501.216ZM340.313 501V495.024C340.313 492.918 338.783 492.09 336.947 492.09C335.525 492.09 334.409 492.558 333.473 493.53L334.103 494.466C334.877 493.638 335.723 493.26 336.767 493.26C338.027 493.26 338.963 493.926 338.963 495.096V496.662C338.261 495.852 337.271 495.474 336.083 495.474C334.607 495.474 333.041 496.392 333.041 498.336C333.041 500.226 334.607 501.216 336.083 501.216C337.253 501.216 338.243 500.802 338.963 500.01V501H340.313ZM336.569 500.244C335.309 500.244 334.427 499.452 334.427 498.354C334.427 497.238 335.309 496.446 336.569 496.446C337.523 496.446 338.441 496.806 338.963 497.526V499.164C338.441 499.884 337.523 500.244 336.569 500.244ZM350.237 501V494.898C350.237 493.008 349.283 492.09 347.465 492.09C346.169 492.09 344.981 492.846 344.369 493.566V492.306H343.019V501H344.369V494.646C344.873 493.944 345.881 493.296 346.943 493.296C348.113 493.296 348.887 493.782 348.887 495.312V501H350.237ZM355.129 501.216C355.921 501.216 356.407 500.982 356.749 500.658L356.353 499.65C356.173 499.848 355.813 500.01 355.435 500.01C354.841 500.01 354.553 499.542 354.553 498.894V493.494H356.317V492.306H354.553V489.93H353.203V492.306H351.763V493.494H353.203V499.182C353.203 500.478 353.851 501.216 355.129 501.216Z" fill="#999999"/>
<path d="M265.127 473V449.655H263.132V473H265.127ZM272.92 473V463.305H279.675C284.12 463.305 286.71 460.155 286.71 456.48C286.71 452.805 284.155 449.655 279.675 449.655H270.925V473H272.92ZM279.465 461.485H272.92V451.475H279.465C282.545 451.475 284.61 453.54 284.61 456.48C284.61 459.42 282.545 461.485 279.465 461.485ZM309.754 473L300.374 460.995L309.229 449.655H306.709L299.114 459.56L291.554 449.655H288.999L297.889 461.03L288.474 473H290.994L299.114 462.465L307.269 473H309.754ZM320.867 473.42C325.172 473.42 328.742 470.55 328.742 465.895C328.742 461.03 325.207 458.44 321.287 458.44C318.872 458.44 316.877 459.49 315.722 460.61V451.475H327.202V449.655H313.727V461.905L315.232 462.535C316.947 460.96 318.767 460.26 320.902 460.26C324.262 460.26 326.712 462.43 326.712 465.965C326.712 469.15 324.227 471.6 320.867 471.6C317.857 471.6 315.827 470.41 314.322 468.275L312.992 469.605C314.602 471.915 316.982 473.42 320.867 473.42Z" fill="url(#paint2_linear_0_1)"/>
<path d="M319.977 404.855C319.977 411.48 317.345 417.833 312.661 422.517C307.977 427.201 301.624 429.832 295 429.832C288.376 429.832 282.023 427.201 277.339 422.517C272.655 417.833 270.023 411.48 270.023 404.855C270.023 391.063 295 348.164 295 348.164C295 348.164 319.977 391.063 319.977 404.855Z" stroke="#999999" stroke-width="2" stroke-linecap="round" stroke-linejoin="round"/>
<path d="M280.682 415.073C279.116 412.885 278.076 410.365 277.642 407.709" stroke="#009EFF" stroke-width="2" stroke-linecap="round" stroke-linejoin="round"/>
<path d="M284.826 419.188L284.578 419.008" stroke="#009EFF" stroke-width="2" stroke-linecap="round" stroke-linejoin="round"/>
<path d="M28.7391 501V488.994H27.2451V494.16H20.2251V488.994H18.7311V501H20.2251V495.492H27.2451V501H28.7391ZM32.1576 491.064C32.6616 491.064 33.0756 490.668 33.0756 490.164C33.0756 489.66 32.6616 489.246 32.1576 489.246C31.6716 489.246 31.2576 489.66 31.2576 490.164C31.2576 490.668 31.6716 491.064 32.1576 491.064ZM32.8416 501V492.306H31.4916V501H32.8416ZM36.8846 501V488.994H35.5346V501H36.8846ZM40.9275 501V488.994H39.5775V501H40.9275ZM54.0031 501.234C55.9651 501.234 57.6031 500.406 58.7191 499.164V494.826H53.1031V496.158H57.2251V498.606C56.6311 499.2 55.4431 499.902 54.0031 499.902C51.3751 499.902 49.3771 497.85 49.3771 495.006C49.3771 492.144 51.3751 490.128 54.0031 490.128C55.4431 490.128 56.7211 490.812 57.4771 491.784L58.6651 491.046C57.6031 489.732 56.1271 488.796 54.0031 488.796C50.5831 488.796 47.8291 491.28 47.8291 495.006C47.8291 498.732 50.5831 501.234 54.0031 501.234ZM62.4432 501V494.844C62.8392 494.142 63.9732 493.458 64.8012 493.458C65.0172 493.458 65.1792 493.476 65.3412 493.512V492.126C64.1532 492.126 63.1452 492.792 62.4432 493.71V492.306H61.0932V501H62.4432ZM73.8206 501V495.024C73.8206 492.918 72.2906 492.09 70.4546 492.09C69.0326 492.09 67.9166 492.558 66.9806 493.53L67.6106 494.466C68.3846 493.638 69.2306 493.26 70.2746 493.26C71.5346 493.26 72.4706 493.926 72.4706 495.096V496.662C71.7686 495.852 70.7786 495.474 69.5906 495.474C68.1146 495.474 66.5486 496.392 66.5486 498.336C66.5486 500.226 68.1146 501.216 69.5906 501.216C70.7606 501.216 71.7506 500.802 72.4706 500.01V501H73.8206ZM70.0766 500.244C68.8166 500.244 67.9346 499.452 67.9346 498.354C67.9346 497.238 68.8166 496.446 70.0766 496.446C71.0306 496.446 71.9486 496.806 72.4706 497.526V499.164C71.9486 499.884 71.0306 500.244 70.0766 500.244ZM84.1768 501V488.994H82.8268V493.62C82.1248 492.666 81.0628 492.09 79.8928 492.09C77.6068 492.09 76.0228 493.89 76.0228 496.662C76.0228 499.488 77.6248 501.216 79.8928 501.216C81.1168 501.216 82.1788 500.586 82.8268 499.704V501H84.1768ZM80.2168 500.01C78.4708 500.01 77.4268 498.588 77.4268 496.662C77.4268 494.736 78.4708 493.296 80.2168 493.296C81.2968 493.296 82.3408 493.944 82.8268 494.7V498.642C82.3408 499.398 81.2968 500.01 80.2168 500.01ZM90.8043 501.216C92.2263 501.216 93.3963 500.748 94.2603 499.884L93.6123 499.002C92.9283 499.704 91.9203 500.1 90.9303 500.1C89.0583 500.1 87.9063 498.732 87.7983 497.094H94.8363V496.752C94.8363 494.142 93.2883 492.09 90.6603 492.09C88.1763 492.09 86.3763 494.124 86.3763 496.644C86.3763 499.362 88.2303 501.216 90.8043 501.216ZM93.5043 496.104H87.7983C87.8703 494.772 88.7883 493.206 90.6423 493.206C92.6223 493.206 93.4863 494.808 93.5043 496.104Z" fill="#999999"/>
<path d="M41.4323 473V471.18H29.1473C35.9023 465.72 41.3273 461.03 41.3273 455.885C41.3273 451.265 37.4073 449.305 33.9773 449.305C30.6873 449.305 27.8523 450.67 26.2073 452.91L27.5723 454.17C28.8323 452.385 31.0723 451.125 33.9773 451.125C36.5323 451.125 39.2973 452.525 39.2973 455.885C39.2973 460.4 33.9773 464.95 26.0323 471.355V473H41.4323ZM55.1184 473.42C61.3484 473.42 63.7284 466.875 63.7284 461.345C63.7284 455.78 61.3484 449.305 55.1184 449.305C48.8184 449.305 46.4734 455.78 46.4734 461.345C46.4734 466.875 48.8184 473.42 55.1184 473.42ZM55.1184 471.6C50.1834 471.6 48.5734 466.14 48.5734 461.345C48.5734 456.515 50.1834 451.125 55.1184 451.125C60.0184 451.125 61.5934 456.515 61.5934 461.345C61.5934 466.14 59.9834 471.6 55.1184 471.6ZM72.3873 460.75C75.6423 460.75 77.8823 458.335 77.8823 455.08C77.8823 451.79 75.6423 449.305 72.3873 449.305C69.1673 449.305 66.9273 451.79 66.9273 455.08C66.9273 458.335 69.1673 460.75 72.3873 460.75ZM71.7923 473L86.7373 449.655H85.1273L70.2173 473H71.7923ZM84.2873 473.42C87.5073 473.42 89.7823 470.97 89.7823 467.715C89.7823 464.425 87.5073 461.94 84.2873 461.94C81.0673 461.94 78.7923 464.425 78.7923 467.715C78.7923 470.97 81.0673 473.42 84.2873 473.42ZM72.3873 459.42C70.1123 459.42 68.5373 457.425 68.5373 455.08C68.5373 452.63 70.1123 450.67 72.3873 450.67C74.6973 450.67 76.2723 452.63 76.2723 455.08C76.2723 457.425 74.6973 459.42 72.3873 459.42ZM84.2873 472.055C81.9773 472.055 80.4023 470.095 80.4023 467.715C80.4023 465.3 81.9773 463.305 84.2873 463.305C86.5973 463.305 88.1373 465.3 88.1373 467.715C88.1373 470.095 86.5973 472.055 84.2873 472.055Z" fill="url(#paint3_linear_0_1)"/>
<g clip-path="url(#clip2_0_1)">
<path d="M37.2189 395.648C41.4361 399.456 44.8104 404.105 47.1252 409.294C49.44 414.484 50.6442 420.1 50.6604 425.782" stroke="#009EFF" stroke-width="2"/>
<path d="M96 426H9.5L96 334" stroke="#999999" stroke-width="2" stroke-linecap="round"/>
<path d="M66 373.5L96 343" stroke="#009EFF" stroke-width="2" stroke-linecap="round"/>
<path d="M54.5 385.5L62 378" stroke="#009EFF" stroke-width="2" stroke-linecap="round"/>
</g>
<path d="M744.195 302V289.994H742.053L738.309 299.03L734.583 289.994H732.441V302H733.935V292.118L738.003 302H738.615L742.701 292.118V302H744.195ZM753.728 302V296.024C753.728 293.918 752.198 293.09 750.362 293.09C748.94 293.09 747.824 293.558 746.888 294.53L747.518 295.466C748.292 294.638 749.138 294.26 750.182 294.26C751.442 294.26 752.378 294.926 752.378 296.096V297.662C751.676 296.852 750.686 296.474 749.498 296.474C748.022 296.474 746.456 297.392 746.456 299.336C746.456 301.226 748.022 302.216 749.498 302.216C750.668 302.216 751.658 301.802 752.378 301.01V302H753.728ZM749.984 301.244C748.724 301.244 747.842 300.452 747.842 299.354C747.842 298.238 748.724 297.446 749.984 297.446C750.938 297.446 751.856 297.806 752.378 298.526V300.164C751.856 300.884 750.938 301.244 749.984 301.244ZM763.634 302L760.286 297.536L763.436 293.306H761.87L759.458 296.618L757.046 293.306H755.48L758.63 297.536L755.3 302H756.848L759.458 298.436L762.068 302H763.634ZM778.595 302L775.355 297.104C776.993 296.96 778.469 295.772 778.469 293.612C778.469 291.398 776.903 289.994 774.707 289.994H769.883V302H771.377V297.23H773.771L776.831 302H778.595ZM774.527 295.916H771.377V291.326H774.527C775.949 291.326 776.921 292.262 776.921 293.612C776.921 294.962 775.949 295.916 774.527 295.916ZM787.214 302V296.024C787.214 293.918 785.684 293.09 783.848 293.09C782.426 293.09 781.31 293.558 780.374 294.53L781.004 295.466C781.778 294.638 782.624 294.26 783.668 294.26C784.928 294.26 785.864 294.926 785.864 296.096V297.662C785.162 296.852 784.172 296.474 782.984 296.474C781.508 296.474 779.942 297.392 779.942 299.336C779.942 301.226 781.508 302.216 782.984 302.216C784.154 302.216 785.144 301.802 785.864 301.01V302H787.214ZM783.47 301.244C782.21 301.244 781.328 300.452 781.328 299.354C781.328 298.238 782.21 297.446 783.47 297.446C784.424 297.446 785.342 297.806 785.864 298.526V300.164C785.342 300.884 784.424 301.244 783.47 301.244ZM797.138 302V295.898C797.138 294.008 796.184 293.09 794.366 293.09C793.07 293.09 791.882 293.846 791.27 294.566V293.306H789.92V302H791.27V295.646C791.774 294.944 792.782 294.296 793.844 294.296C795.014 294.296 795.788 294.782 795.788 296.312V302H797.138ZM803.326 305.528C805.45 305.528 807.466 304.628 807.466 301.748V293.306H806.116V294.62C805.414 293.666 804.37 293.09 803.2 293.09C800.914 293.09 799.33 294.818 799.33 297.608C799.33 300.416 800.932 302.108 803.2 302.108C804.424 302.108 805.486 301.442 806.116 300.56V301.802C806.116 303.71 804.766 304.412 803.326 304.412C802.084 304.412 801.22 304.088 800.5 303.224L799.816 304.232C800.842 305.24 801.85 305.528 803.326 305.528ZM803.524 300.92C801.778 300.92 800.734 299.516 800.734 297.608C800.734 295.682 801.778 294.296 803.524 294.296C804.604 294.296 805.648 294.944 806.116 295.7V299.498C805.648 300.254 804.604 300.92 803.524 300.92ZM814.094 302.216C815.516 302.216 816.686 301.748 817.55 300.884L816.902 300.002C816.218 300.704 815.21 301.1 814.22 301.1C812.348 301.1 811.196 299.732 811.088 298.094H818.126V297.752C818.126 295.142 816.578 293.09 813.95 293.09C811.466 293.09 809.666 295.124 809.666 297.644C809.666 300.362 811.52 302.216 814.094 302.216ZM816.794 297.104H811.088C811.16 295.772 812.078 294.206 813.932 294.206C815.912 294.206 816.776 295.808 816.794 297.104Z" fill="#999999"/>
<path d="M713.7 274V267.63H717.13V265.81H713.7V250.655H711.005L700.645 265.845V267.63H711.705V274H713.7ZM711.705 265.81H702.71L711.705 252.65V265.81ZM729.031 274.42C735.261 274.42 737.641 267.875 737.641 262.345C737.641 256.78 735.261 250.305 729.031 250.305C722.731 250.305 720.386 256.78 720.386 262.345C720.386 267.875 722.731 274.42 729.031 274.42ZM729.031 272.6C724.096 272.6 722.486 267.14 722.486 262.345C722.486 257.515 724.096 252.125 729.031 252.125C733.931 252.125 735.506 257.515 735.506 262.345C735.506 267.14 733.896 272.6 729.031 272.6ZM742.2 274.35C743.04 274.35 743.775 273.615 743.775 272.775C743.775 271.97 743.04 271.27 742.2 271.27C741.36 271.27 740.66 271.97 740.66 272.775C740.66 273.615 741.36 274.35 742.2 274.35ZM760.322 274V267.63H763.752V265.81H760.322V250.655H757.627L747.267 265.845V267.63H758.327V274H760.322ZM758.327 265.81H749.332L758.327 252.65V265.81ZM798.78 274V250.655H795.77L787.86 269.905L779.915 250.655H776.94V274H778.935V253.385L787.475 274H788.245L796.75 253.385V274H798.78ZM805.431 254.435C806.201 254.435 806.831 253.805 806.831 253.035C806.831 252.265 806.201 251.67 805.431 251.67C804.696 251.67 804.031 252.265 804.031 253.035C804.031 253.805 804.696 254.435 805.431 254.435ZM806.341 274V257.095H804.521V274H806.341ZM813.826 274V250.655H812.006V274H813.826ZM826.982 274.42C829.782 274.42 831.917 273.44 833.597 271.69L832.652 270.5C831.217 272.04 829.257 272.845 827.122 272.845C823.132 272.845 820.682 269.8 820.507 266.125H834.647V265.635C834.647 260.77 831.812 256.675 826.667 256.675C821.977 256.675 818.512 260.63 818.512 265.53C818.512 270.745 822.047 274.42 826.982 274.42ZM832.792 264.69H820.507C820.647 261.75 822.642 258.25 826.632 258.25C830.867 258.25 832.757 261.82 832.792 264.69ZM844.39 274.42C848.625 274.42 850.725 272.18 850.725 269.45C850.725 262.94 840.05 265.53 840.05 261.295C840.05 259.545 841.66 258.215 844.285 258.215C846.525 258.215 848.345 259.125 849.325 260.455L850.34 259.16C849.115 257.795 847.19 256.675 844.285 256.675C840.47 256.675 838.265 258.775 838.265 261.365C838.265 267.42 848.94 264.83 848.94 269.45C848.94 271.41 847.26 272.88 844.425 272.88C842.045 272.88 840.05 271.76 838.965 270.395L837.88 271.76C839.56 273.615 841.66 274.42 844.39 274.42Z" fill="url(#paint4_linear_0_1)"/>
<path d="M775 154.5H761.295C752.321 154.5 745.045 161.775 745.045 170.75V170.75C745.045 179.725 752.321 187 761.295 187H796.25C805.225 187 812.5 194.275 812.5 203.25V203.25C812.5 212.225 805.225 219.5 796.25 219.5H779.5M774 219.5H763.5M781.5 154.5H793" stroke="#999999" stroke-width="2" stroke-linecap="round"/>
<path d="M774 219.5H763.5M781.5 154.5H793" stroke="#009EFF" stroke-width="2" stroke-linecap="round"/>
<circle cx="11.25" cy="11.25" r="10.25" transform="matrix(-1 0 0 1 820 142)" fill="#F5F5F5" stroke="#009EFF" stroke-width="2"/>
<circle cx="11.25" cy="11.25" r="10.25" transform="matrix(-1 0 0 1 760 209.5)" fill="#F5F5F5" stroke="#009EFF" stroke-width="2"/>
<path d="M504.194 302V289.994H502.052L498.308 299.03L494.582 289.994H492.44V302H493.934V292.118L498.002 302H498.614L502.7 292.118V302H504.194ZM513.727 302V296.024C513.727 293.918 512.197 293.09 510.361 293.09C508.939 293.09 507.823 293.558 506.887 294.53L507.517 295.466C508.291 294.638 509.137 294.26 510.181 294.26C511.441 294.26 512.377 294.926 512.377 296.096V297.662C511.675 296.852 510.685 296.474 509.497 296.474C508.021 296.474 506.455 297.392 506.455 299.336C506.455 301.226 508.021 302.216 509.497 302.216C510.667 302.216 511.657 301.802 512.377 301.01V302H513.727ZM509.983 301.244C508.723 301.244 507.841 300.452 507.841 299.354C507.841 298.238 508.723 297.446 509.983 297.446C510.937 297.446 511.855 297.806 512.377 298.526V300.164C511.855 300.884 510.937 301.244 509.983 301.244ZM523.633 302L520.285 297.536L523.435 293.306H521.869L519.457 296.618L517.045 293.306H515.479L518.629 297.536L515.299 302H516.847L519.457 298.436L522.067 302H523.633ZM533.77 302.216C537.01 302.216 538.198 300.434 538.198 298.688C538.198 294.206 531.088 295.754 531.088 293.054C531.088 291.92 532.114 291.146 533.554 291.146C534.868 291.146 536.128 291.596 537.028 292.586L537.928 291.488C536.92 290.426 535.498 289.814 533.662 289.814C531.304 289.814 529.54 291.164 529.54 293.144C529.54 297.428 536.65 295.718 536.65 298.814C536.65 299.732 535.966 300.884 533.824 300.884C532.132 300.884 530.836 300.056 530.044 299.174L529.162 300.308C530.152 301.424 531.682 302.216 533.77 302.216ZM544.658 302.216C546.944 302.216 548.528 300.452 548.528 297.644C548.528 294.818 546.944 293.09 544.658 293.09C543.434 293.09 542.354 293.72 541.724 294.602V293.306H540.374V305.312H541.724V300.686C542.426 301.658 543.47 302.216 544.658 302.216ZM544.316 301.01C543.254 301.01 542.192 300.362 541.724 299.606V295.682C542.192 294.926 543.254 294.296 544.316 294.296C546.062 294.296 547.106 295.718 547.106 297.644C547.106 299.57 546.062 301.01 544.316 301.01ZM554.599 302.216C556.021 302.216 557.191 301.748 558.055 300.884L557.407 300.002C556.723 300.704 555.715 301.1 554.725 301.1C552.853 301.1 551.701 299.732 551.593 298.094H558.631V297.752C558.631 295.142 557.083 293.09 554.455 293.09C551.971 293.09 550.171 295.124 550.171 297.644C550.171 300.362 552.025 302.216 554.599 302.216ZM557.299 297.104H551.593C551.665 295.772 552.583 294.206 554.437 294.206C556.417 294.206 557.281 295.808 557.299 297.104ZM564.742 302.216C566.164 302.216 567.334 301.748 568.198 300.884L567.55 300.002C566.866 300.704 565.858 301.1 564.868 301.1C562.996 301.1 561.844 299.732 561.736 298.094H568.774V297.752C568.774 295.142 567.226 293.09 564.598 293.09C562.114 293.09 560.314 295.124 560.314 297.644C560.314 300.362 562.168 302.216 564.742 302.216ZM567.442 297.104H561.736C561.808 295.772 562.726 294.206 564.58 294.206C566.56 294.206 567.424 295.808 567.442 297.104ZM578.61 302V289.994H577.26V294.62C576.558 293.666 575.496 293.09 574.326 293.09C572.04 293.09 570.456 294.89 570.456 297.662C570.456 300.488 572.058 302.216 574.326 302.216C575.55 302.216 576.612 301.586 577.26 300.704V302H578.61ZM574.65 301.01C572.904 301.01 571.86 299.588 571.86 297.662C571.86 295.736 572.904 294.296 574.65 294.296C575.73 294.296 576.774 294.944 577.26 295.7V299.642C576.774 300.398 575.73 301.01 574.65 301.01Z" fill="#999999"/>
<path d="M477.361 274V250.655H475.541L470.396 256.08L471.621 257.375L475.366 253.385V274H477.361ZM490.263 274.42C494.743 274.42 498.173 271.935 498.173 268.155C498.173 264.9 495.373 262.765 492.398 261.96C495.163 261.225 497.823 259.44 497.823 256.325C497.823 252.195 493.903 250.305 490.263 250.305C486.553 250.305 482.703 252.195 482.703 256.325C482.703 259.44 485.363 261.225 488.128 261.96C485.153 262.765 482.318 264.9 482.318 268.155C482.318 271.97 485.748 274.42 490.263 274.42ZM490.263 261.12C488.863 260.84 484.733 259.79 484.733 256.535C484.733 253.735 487.183 252.125 490.263 252.125C493.308 252.125 495.793 253.735 495.793 256.535C495.793 259.79 491.698 260.84 490.263 261.12ZM490.263 272.6C487.148 272.6 484.348 270.85 484.348 268.015C484.348 264.445 488.828 263.045 490.263 262.87C491.663 263.045 496.178 264.445 496.178 268.015C496.178 270.85 493.308 272.6 490.263 272.6ZM504.063 274.35C504.903 274.35 505.638 273.615 505.638 272.775C505.638 271.97 504.903 271.27 504.063 271.27C503.223 271.27 502.523 271.97 502.523 272.775C502.523 273.615 503.223 274.35 504.063 274.35ZM517.245 274.42C522.215 274.42 525.085 270.78 525.085 266.965C525.085 261.995 521.76 259.58 517.56 259.58C514.41 259.58 511.715 261.855 510.735 263.465C510.7 263.115 510.7 262.73 510.7 262.38C510.7 257.41 512.555 252.125 517.595 252.125C520.15 252.125 521.585 253.21 522.705 254.75L523.895 253.28C522.495 251.53 520.64 250.305 517.595 250.305C511.155 250.305 508.67 256.36 508.67 262.345C508.67 268.61 510.945 274.42 517.245 274.42ZM517.175 272.6C512.8 272.6 511.12 268.54 510.84 265.355C512.17 263.01 514.655 261.365 517.21 261.365C520.57 261.365 523.055 263.185 523.055 267C523.055 269.52 521.165 272.6 517.175 272.6ZM560.917 274V261.82C560.917 258.425 559.412 256.675 556.297 256.675C553.917 256.675 551.642 258.285 550.697 259.86C550.277 258.215 548.877 256.675 546.252 256.675C543.802 256.675 541.492 258.565 540.792 259.65V257.095H538.972V274H540.792V261.225C541.807 259.685 543.837 258.32 545.622 258.32C548.037 258.32 549.017 259.79 549.017 262.17V274H550.872V261.19C551.817 259.65 553.882 258.32 555.702 258.32C558.082 258.32 559.097 259.79 559.097 262.17V274H560.917ZM574.289 274.42C578.804 274.42 581.849 270.92 581.849 265.53C581.849 260.105 578.804 256.675 574.289 256.675C571.769 256.675 569.599 258.04 568.409 259.755V257.095H566.589V280.44H568.409V271.27C569.774 273.195 571.909 274.42 574.289 274.42ZM573.974 272.775C571.629 272.775 569.389 271.305 568.409 269.695V261.33C569.389 259.72 571.629 258.32 573.974 258.32C577.754 258.32 579.889 261.435 579.889 265.53C579.889 269.625 577.754 272.775 573.974 272.775ZM599.677 274V262.1C599.677 258.285 597.787 256.675 594.357 256.675C591.907 256.675 589.492 258.18 588.267 259.65V250.655H586.447V274H588.267V261.225C589.352 259.685 591.592 258.32 593.762 258.32C596.212 258.32 597.857 259.23 597.857 262.485V274H599.677Z" fill="url(#paint5_linear_0_1)"/>
<g clip-path="url(#clip3_0_1)">
<path d="M535 190C530.578 190 527 193.584 527 198C527 202.416 530.578 206 535 206C539.422 206 543 202.416 543 198C543 193.582 539.422 190 535 190Z" stroke="#009EFF" stroke-width="2" stroke-miterlimit="10" stroke-linecap="round" stroke-linejoin="round"/>
<path d="M574.918 224.676C577.631 220.62 579.744 216.129 581.127 211.328C582.347 207.097 583 202.626 583 198C583 196.88 582.962 195.768 582.886 194.667C582.65 191.221 582.051 187.875 581.127 184.667C580.635 182.959 580.051 181.291 579.38 179.667C579.031 178.821 578.658 177.988 578.263 177.167C577.602 175.796 576.878 174.462 576.094 173.167C567.688 159.276 552.436 150 535 150C508.472 150 487 171.472 487 198C487 207.872 489.976 217.042 495.074 224.664" stroke="#999999" stroke-width="2" stroke-miterlimit="10" stroke-linecap="round" stroke-linejoin="round"/>
<path d="M571 220.639C571.347 220.127 571.682 219.607 572.005 219.079C572.59 218.124 573.136 217.143 573.641 216.139C574.293 214.843 574.877 213.508 575.387 212.139C575.725 211.233 576.031 210.312 576.304 209.378C576.567 208.477 576.799 207.564 576.999 206.639C577.177 205.814 577.33 204.981 577.456 204.139C577.614 203.087 577.732 202.021 577.806 200.944C577.871 200.016 577.903 199.078 577.903 198.134M574.812 182.667C575.384 184.037 575.883 185.444 576.304 186.885C576.567 187.786 576.799 188.7 576.999 189.625C577.213 190.617 577.39 191.622 577.53 192.639" stroke="#009EFF" stroke-width="2" stroke-miterlimit="10" stroke-linecap="round" stroke-linejoin="round"/>
<path d="M565.622 168.604C566.625 169.698 567.571 170.854 568.454 172.067C569.007 172.825 569.535 173.607 570.036 174.41C570.574 175.27 571.081 176.155 571.557 177.065" stroke="#009EFF" stroke-width="2" stroke-miterlimit="10" stroke-linecap="round" stroke-linejoin="round"/>
<path d="M530.38 191.457L562.989 175.696L540.706 203.685" stroke="#009EFF" stroke-width="2"/>
</g>
<path d="M233 302V296.528H239.246V295.196H233V291.326H239.372V289.994H231.506V302H233ZM242.698 302V295.844C243.094 295.142 244.228 294.458 245.056 294.458C245.272 294.458 245.434 294.476 245.596 294.512V293.126C244.408 293.126 243.4 293.792 242.698 294.71V293.306H241.348V302H242.698ZM251.087 302.216C253.733 302.216 255.389 300.164 255.389 297.644C255.389 295.124 253.733 293.09 251.087 293.09C248.441 293.09 246.785 295.124 246.785 297.644C246.785 300.164 248.441 302.216 251.087 302.216ZM251.087 301.01C249.233 301.01 248.189 299.426 248.189 297.644C248.189 295.88 249.233 294.296 251.087 294.296C252.941 294.296 253.967 295.88 253.967 297.644C253.967 299.426 252.941 301.01 251.087 301.01ZM264.808 302V295.898C264.808 294.008 263.854 293.09 262.036 293.09C260.74 293.09 259.552 293.846 258.94 294.566V293.306H257.59V302H258.94V295.646C259.444 294.944 260.452 294.296 261.514 294.296C262.684 294.296 263.458 294.782 263.458 296.312V302H264.808ZM269.7 302.216C270.492 302.216 270.978 301.982 271.32 301.658L270.924 300.65C270.744 300.848 270.384 301.01 270.006 301.01C269.412 301.01 269.124 300.542 269.124 299.894V294.494H270.888V293.306H269.124V290.93H267.774V293.306H266.334V294.494H267.774V300.182C267.774 301.478 268.422 302.216 269.7 302.216ZM284.564 302V300.668H278.984V289.994H277.49V302H284.564ZM294.532 302V300.668H288.16V296.528H294.406V295.196H288.16V291.326H294.532V289.994H286.666V302H294.532ZM301.018 302C304.744 302 307.174 299.426 307.174 296.006C307.174 292.604 304.744 289.994 301.018 289.994H296.914V302H301.018ZM301.018 300.668H298.408V291.326H301.018C303.988 291.326 305.626 293.414 305.626 296.006C305.626 298.58 303.934 300.668 301.018 300.668ZM321.232 302V300.668H315.652V289.994H314.158V302H321.232ZM323.946 292.064C324.45 292.064 324.864 291.668 324.864 291.164C324.864 290.66 324.45 290.246 323.946 290.246C323.46 290.246 323.046 290.66 323.046 291.164C323.046 291.668 323.46 292.064 323.946 292.064ZM324.63 302V293.306H323.28V302H324.63ZM330.815 305.528C332.939 305.528 334.955 304.628 334.955 301.748V293.306H333.605V294.62C332.903 293.666 331.859 293.09 330.689 293.09C328.403 293.09 326.819 294.818 326.819 297.608C326.819 300.416 328.421 302.108 330.689 302.108C331.913 302.108 332.975 301.442 333.605 300.56V301.802C333.605 303.71 332.255 304.412 330.815 304.412C329.573 304.412 328.709 304.088 327.989 303.224L327.305 304.232C328.331 305.24 329.339 305.528 330.815 305.528ZM331.013 300.92C329.267 300.92 328.223 299.516 328.223 297.608C328.223 295.682 329.267 294.296 331.013 294.296C332.093 294.296 333.137 294.944 333.605 295.7V299.498C333.137 300.254 332.093 300.92 331.013 300.92ZM344.895 302V295.862C344.895 293.972 343.941 293.09 342.123 293.09C340.809 293.09 339.621 293.846 339.009 294.566V289.994H337.659V302H339.009V295.646C339.531 294.944 340.539 294.296 341.583 294.296C342.753 294.296 343.545 294.746 343.545 296.276V302H344.895ZM349.786 302.216C350.578 302.216 351.064 301.982 351.406 301.658L351.01 300.65C350.83 300.848 350.47 301.01 350.092 301.01C349.498 301.01 349.21 300.542 349.21 299.894V294.494H350.974V293.306H349.21V290.93H347.86V293.306H346.42V294.494H347.86V300.182C347.86 301.478 348.508 302.216 349.786 302.216ZM355.635 302.216C357.885 302.216 359.055 301.046 359.055 299.588C359.055 296.204 353.673 297.464 353.673 295.556C353.673 294.782 354.411 294.188 355.599 294.188C356.715 294.188 357.669 294.656 358.191 295.286L358.821 294.35C358.119 293.648 357.075 293.09 355.599 293.09C353.529 293.09 352.359 294.242 352.359 295.592C352.359 298.814 357.741 297.518 357.741 299.624C357.741 300.488 357.021 301.118 355.689 301.118C354.501 301.118 353.403 300.542 352.827 299.876L352.125 300.848C353.007 301.784 354.213 302.216 355.635 302.216Z" fill="#999999"/>
<path d="M281.392 274V272.18H270.087V250.655H268.092V274H281.392ZM300.534 274V272.18H287.724V262.94H300.289V261.12H287.724V252.475H300.534V250.655H285.729V274H300.534ZM312.94 274C320.185 274 324.735 268.82 324.735 262.345C324.735 255.94 320.185 250.655 312.94 250.655H305.485V274H312.94ZM312.94 272.18H307.48V252.475H312.94C319.135 252.475 322.635 256.885 322.635 262.345C322.635 267.805 319.1 272.18 312.94 272.18Z" fill="url(#paint6_linear_0_1)"/>
<g clip-path="url(#clip4_0_1)">
<path d="M311.692 199.417C310.47 200.344 309.472 201.535 308.774 202.901C308.075 204.267 307.693 205.772 307.656 207.306" stroke="#009EFF" stroke-width="2" stroke-linecap="round" stroke-linejoin="round"/>
<path d="M299.219 218.584V222.156C299.219 222.902 298.922 223.618 298.395 224.145C297.868 224.673 297.152 224.969 296.406 224.969H293.594C292.848 224.969 292.132 224.673 291.605 224.145C291.078 223.618 290.781 222.902 290.781 222.156V218.584C291.636 219.08 292.606 219.342 293.594 219.344H296.406C297.394 219.342 298.364 219.08 299.219 218.584V218.584Z" stroke="#999999" stroke-width="2" stroke-linecap="round" stroke-linejoin="round"/>
<path d="M302.031 208.094V213.719C302.031 215.211 301.439 216.641 300.384 217.696C299.329 218.751 297.898 219.344 296.406 219.344H293.594C292.102 219.344 290.671 218.751 289.616 217.696C288.561 216.641 287.969 215.211 287.969 213.719V208.094H302.031Z" stroke="#999999" stroke-width="2" stroke-linecap="round" stroke-linejoin="round"/>
<path d="M316.094 178.309C316.131 181.515 315.438 184.687 314.066 187.584C312.694 190.481 310.68 193.027 308.176 195.03C306.295 196.482 304.765 198.34 303.701 200.466C302.637 202.591 302.067 204.93 302.031 207.306V208.094H287.969V207.306C287.994 205.007 287.49 202.733 286.495 200.66C285.5 198.587 284.041 196.771 282.231 195.353C279.383 193.186 277.133 190.331 275.692 187.055C274.251 183.779 273.668 180.19 273.997 176.627C274.326 173.063 275.556 169.642 277.571 166.684C279.587 163.727 282.321 161.331 285.518 159.722C288.715 158.114 292.268 157.344 295.844 157.487C299.42 157.63 302.901 158.681 305.959 160.54C309.017 162.399 311.551 165.005 313.324 168.114C315.097 171.222 316.05 174.731 316.094 178.309V178.309Z" stroke="#999999" stroke-width="2" stroke-linecap="round" stroke-linejoin="round"/>
<path d="M292.188 208.094V191.219" stroke="#999999" stroke-width="2" stroke-linecap="round" stroke-linejoin="round"/>
<path d="M297.812 208.094V191.219" stroke="#999999" stroke-width="2" stroke-linecap="round" stroke-linejoin="round"/>
<path d="M292.188 191.219L283.75 182.781" stroke="#999999" stroke-width="2" stroke-linecap="round" stroke-linejoin="round"/>
<path d="M297.812 191.219L306.25 182.781" stroke="#999999" stroke-width="2" stroke-linecap="round" stroke-linejoin="round"/>
<path d="M286.562 163.952C289.126 162.466 292.037 161.685 295 161.688" stroke="#009EFF" stroke-width="2" stroke-linecap="round" stroke-linejoin="round"/>
<path d="M278.125 178.562C278.125 174.777 279.398 171.102 281.739 168.128" stroke="#009EFF" stroke-width="2" stroke-linecap="round" stroke-linejoin="round"/>
<path d="M295 153.25V147.625" stroke="#009EFF" stroke-width="2" stroke-linecap="round" stroke-linejoin="round"/>
<path d="M277.098 160.661L273.119 156.681" stroke="#009EFF" stroke-width="2" stroke-linecap="round" stroke-linejoin="round"/>
<path d="M269.688 178.562H264.062" stroke="#009EFF" stroke-width="2" stroke-linecap="round" stroke-linejoin="round"/>
<path d="M320.312 178.562H325.938" stroke="#009EFF" stroke-width="2" stroke-linecap="round" stroke-linejoin="round"/>
<path d="M312.901 160.661L316.881 156.681" stroke="#009EFF" stroke-width="2" stroke-linecap="round" stroke-linejoin="round"/>
<path d="M287.969 212.312H302.031" stroke="#999999" stroke-width="2" stroke-linecap="round" stroke-linejoin="round"/>
</g>
<g clip-path="url(#clip5_0_1)">
<circle cx="64" cy="191" r="23" stroke="#999999" stroke-width="2"/>
<path d="M78.6174 155.924C81.6828 157.201 84.5674 158.875 87.1977 160.902" stroke="#009EFF" stroke-width="2" stroke-linecap="round"/>
<path d="M90.8702 164.13C95.5868 168.847 98.9788 174.722 100.705 181.165C102.432 187.608 102.432 194.392 100.705 200.835" stroke="#009EFF" stroke-width="2" stroke-linecap="round"/>
<path d="M44.4819 223.605C35.8346 218.428 29.5979 210.029 27.1437 200.254" stroke="#009EFF" stroke-width="2" stroke-linecap="round"/>
<circle cx="64" cy="191" r="44" stroke="#999999" stroke-width="2"/>
</g>
<path d="M3.29253 302V297.23H6.62253C8.99853 297.23 10.3845 295.574 10.3845 293.612C10.3845 291.65 9.03453 289.994 6.62253 289.994H1.79853V302H3.29253ZM6.44253 295.898H3.29253V291.326H6.44253C7.86453 291.326 8.83653 292.262 8.83653 293.612C8.83653 294.962 7.86453 295.898 6.44253 295.898ZM19.527 302V295.898C19.527 294.008 18.573 293.09 16.755 293.09C15.459 293.09 14.271 293.846 13.659 294.566V293.306H12.309V302H13.659V295.646C14.163 294.944 15.171 294.296 16.233 294.296C17.403 294.296 18.177 294.782 18.177 296.312V302H19.527ZM26.147 302.216C27.569 302.216 28.739 301.748 29.603 300.884L28.955 300.002C28.271 300.704 27.263 301.1 26.273 301.1C24.401 301.1 23.249 299.732 23.141 298.094H30.179V297.752C30.179 295.142 28.631 293.09 26.003 293.09C23.519 293.09 21.719 295.124 21.719 297.644C21.719 300.362 23.573 302.216 26.147 302.216ZM28.847 297.104H23.141C23.213 295.772 24.131 294.206 25.985 294.206C27.965 294.206 28.829 295.808 28.847 297.104ZM39.5836 302V293.306H38.2336V299.696C37.7296 300.398 36.7216 301.01 35.6596 301.01C34.4896 301.01 33.7156 300.56 33.7156 299.03V293.306H32.3656V299.444C32.3656 301.334 33.3196 302.216 35.1376 302.216C36.4336 302.216 37.5676 301.532 38.2336 300.776V302H39.5836ZM54.1237 302V295.718C54.1237 293.972 53.2777 293.09 51.6937 293.09C50.4337 293.09 49.2637 293.918 48.7777 294.71C48.5257 293.81 47.7697 293.09 46.4377 293.09C45.1597 293.09 43.9897 294.008 43.6297 294.566V293.306H42.2797V302H43.6297V295.646C44.0977 294.944 45.0337 294.296 45.9157 294.296C47.0497 294.296 47.5177 294.998 47.5177 296.096V302H48.8677V295.628C49.3177 294.944 50.2717 294.296 51.1717 294.296C52.2877 294.296 52.7737 294.998 52.7737 296.096V302H54.1237ZM63.6028 302V296.024C63.6028 293.918 62.0728 293.09 60.2368 293.09C58.8148 293.09 57.6988 293.558 56.7628 294.53L57.3928 295.466C58.1668 294.638 59.0128 294.26 60.0568 294.26C61.3168 294.26 62.2528 294.926 62.2528 296.096V297.662C61.5508 296.852 60.5608 296.474 59.3728 296.474C57.8968 296.474 56.3308 297.392 56.3308 299.336C56.3308 301.226 57.8968 302.216 59.3728 302.216C60.5428 302.216 61.5328 301.802 62.2528 301.01V302H63.6028ZM59.8588 301.244C58.5988 301.244 57.7168 300.452 57.7168 299.354C57.7168 298.238 58.5988 297.446 59.8588 297.446C60.8128 297.446 61.7308 297.806 62.2528 298.526V300.164C61.7308 300.884 60.8128 301.244 59.8588 301.244ZM68.505 302.216C69.297 302.216 69.783 301.982 70.125 301.658L69.729 300.65C69.549 300.848 69.189 301.01 68.811 301.01C68.217 301.01 67.929 300.542 67.929 299.894V294.494H69.693V293.306H67.929V290.93H66.579V293.306H65.139V294.494H66.579V300.182C66.579 301.478 67.227 302.216 68.505 302.216ZM72.266 292.064C72.77 292.064 73.184 291.668 73.184 291.164C73.184 290.66 72.77 290.246 72.266 290.246C71.78 290.246 71.366 290.66 71.366 291.164C71.366 291.668 71.78 292.064 72.266 292.064ZM72.95 302V293.306H71.6V302H72.95ZM79.477 302.216C81.061 302.216 81.997 301.568 82.663 300.704L81.763 299.876C81.187 300.65 80.449 301.01 79.549 301.01C77.695 301.01 76.543 299.57 76.543 297.644C76.543 295.718 77.695 294.296 79.549 294.296C80.449 294.296 81.187 294.638 81.763 295.43L82.663 294.602C81.997 293.738 81.061 293.09 79.477 293.09C76.885 293.09 75.139 295.07 75.139 297.644C75.139 300.236 76.885 302.216 79.477 302.216ZM93.7137 302V291.326H97.5297V289.994H88.4217V291.326H92.2197V302H93.7137ZM100.127 292.064C100.631 292.064 101.045 291.668 101.045 291.164C101.045 290.66 100.631 290.246 100.127 290.246C99.6413 290.246 99.2273 290.66 99.2273 291.164C99.2273 291.668 99.6413 292.064 100.127 292.064ZM100.811 302V293.306H99.4613V302H100.811ZM104.854 302V295.844C105.25 295.142 106.384 294.458 107.212 294.458C107.428 294.458 107.59 294.476 107.752 294.512V293.126C106.564 293.126 105.556 293.792 104.854 294.71V293.306H103.504V302H104.854ZM113.37 302.216C114.792 302.216 115.962 301.748 116.826 300.884L116.178 300.002C115.494 300.704 114.486 301.1 113.496 301.1C111.624 301.1 110.472 299.732 110.364 298.094H117.402V297.752C117.402 295.142 115.854 293.09 113.226 293.09C110.742 293.09 108.942 295.124 108.942 297.644C108.942 300.362 110.796 302.216 113.37 302.216ZM116.07 297.104H110.364C110.436 295.772 111.354 294.206 113.208 294.206C115.188 294.206 116.052 295.808 116.07 297.104ZM122.342 302.216C124.592 302.216 125.762 301.046 125.762 299.588C125.762 296.204 120.38 297.464 120.38 295.556C120.38 294.782 121.118 294.188 122.306 294.188C123.422 294.188 124.376 294.656 124.898 295.286L125.528 294.35C124.826 293.648 123.782 293.09 122.306 293.09C120.236 293.09 119.066 294.242 119.066 295.592C119.066 298.814 124.448 297.518 124.448 299.624C124.448 300.488 123.728 301.118 122.396 301.118C121.208 301.118 120.11 300.542 119.534 299.876L118.832 300.848C119.714 301.784 120.92 302.216 122.342 302.216Z" fill="#999999"/>
<path d="M49.0386 274V250.655H47.2186L42.0736 256.08L43.2986 257.375L47.0436 253.385V274H49.0386ZM62.6052 274.42C68.8352 274.42 71.2152 267.875 71.2152 262.345C71.2152 256.78 68.8352 250.305 62.6052 250.305C56.3052 250.305 53.9602 256.78 53.9602 262.345C53.9602 267.875 56.3052 274.42 62.6052 274.42ZM62.6052 272.6C57.6702 272.6 56.0602 267.14 56.0602 262.345C56.0602 257.515 57.6702 252.125 62.6052 252.125C67.5052 252.125 69.0802 257.515 69.0802 262.345C69.0802 267.14 67.4702 272.6 62.6052 272.6ZM83.7241 252.545C83.7241 251.11 82.9191 250.305 81.9741 250.305C81.0991 250.305 80.4691 251.005 80.4691 251.81C80.4691 252.65 81.0641 253.28 81.8691 253.28C82.0091 253.28 82.2191 253.245 82.2541 253.21C82.1841 254.33 81.3091 255.695 80.1891 256.465L81.2391 257.305C82.6041 256.36 83.7241 254.505 83.7241 252.545ZM78.7891 252.545C78.7891 251.11 77.9491 250.305 77.0041 250.305C76.1641 250.305 75.4991 251.005 75.4991 251.81C75.4991 252.65 76.0941 253.28 76.9341 253.28C77.0391 253.28 77.2841 253.245 77.2841 253.21C77.2141 254.33 76.3741 255.695 75.2541 256.465L76.2691 257.305C77.6341 256.36 78.7891 254.505 78.7891 252.545Z" fill="url(#paint7_linear_0_1)"/>
<path d="M158.659 46V12.65H151.559V46H158.659ZM201.429 46V12.65H191.429L183.329 32.8L175.229 12.65H165.279V46H172.379V22.65L181.779 46H184.879L194.279 22.65V46H201.429ZM215.153 46V34.15H223.653C230.853 34.15 234.853 29.2 234.853 23.4C234.853 17.55 230.903 12.65 223.653 12.65H208.053V46H215.153ZM222.703 27.9H215.153V18.9H222.703C225.503 18.9 227.603 20.6 227.603 23.4C227.603 26.15 225.503 27.9 222.703 27.9ZM266.254 46L258.754 33.3C262.354 32.45 266.054 29.3 266.054 23.4C266.054 17.2 261.804 12.65 254.854 12.65H239.254V46H246.354V34.15H251.554L258.104 46H266.254ZM253.804 27.9H246.354V18.9H253.804C256.654 18.9 258.804 20.6 258.804 23.4C258.804 26.2 256.654 27.9 253.804 27.9ZM294.983 46V39.75H278.483V32.2H294.633V25.95H278.483V18.9H294.983V12.65H271.383V46H294.983ZM312.383 46.6C321.383 46.6 325.733 42 325.733 35.9C325.733 23.45 306.583 27 306.583 21.7C306.583 19.7 308.283 18.35 311.333 18.35C314.733 18.35 318.333 19.5 321.033 22L324.983 16.8C321.683 13.75 317.283 12.15 311.983 12.15C304.133 12.15 299.333 16.75 299.333 22.3C299.333 34.85 318.533 30.8 318.533 36.7C318.533 38.6 316.633 40.4 312.733 40.4C308.133 40.4 304.483 38.35 302.133 35.9L298.283 41.3C301.383 44.45 305.983 46.6 312.383 46.6ZM342.364 46.6C351.364 46.6 355.714 42 355.714 35.9C355.714 23.45 336.564 27 336.564 21.7C336.564 19.7 338.264 18.35 341.314 18.35C344.714 18.35 348.314 19.5 351.014 22L354.964 16.8C351.664 13.75 347.264 12.15 341.964 12.15C334.114 12.15 329.314 16.75 329.314 22.3C329.314 34.85 348.514 30.8 348.514 36.7C348.514 38.6 346.614 40.4 342.714 40.4C338.114 40.4 334.464 38.35 332.114 35.9L328.264 41.3C331.364 44.45 335.964 46.6 342.364 46.6ZM367.594 46V12.65H360.494V46H367.594ZM392.465 46L405.315 12.65H397.215L388.015 38.3L378.765 12.65H370.665L383.565 46H392.465ZM431.995 46V39.75H415.495V32.2H431.645V25.95H415.495V18.9H431.995V12.65H408.395V46H431.995ZM457.438 46V32.2H473.588V25.95H457.438V18.9H473.938V12.65H450.338V46H457.438ZM502.503 46V39.75H486.003V32.2H502.153V25.95H486.003V18.9H502.503V12.65H478.903V46H502.503ZM539.153 46L526.303 12.65H517.403L504.503 46H512.603L514.703 40.35H529.003L531.053 46H539.153ZM527.053 34.1H516.653L521.853 19.75L527.053 34.1ZM553.86 46V18.9H563.56V12.65H536.96V18.9H546.71V46H553.86ZM583.162 46.6C593.312 46.6 598.212 40.95 598.212 32.65V12.65H590.962V32.45C590.962 37.1 588.312 40.3 583.162 40.3C578.012 40.3 575.312 37.1 575.312 32.45V12.65H568.112V32.7C568.112 40.9 573.012 46.6 583.162 46.6ZM631.781 46L624.281 33.3C627.881 32.45 631.581 29.3 631.581 23.4C631.581 17.2 627.331 12.65 620.381 12.65H604.781V46H611.881V34.15H617.081L623.631 46H631.781ZM619.331 27.9H611.881V18.9H619.331C622.181 18.9 624.331 20.6 624.331 23.4C624.331 26.2 622.181 27.9 619.331 27.9ZM660.51 46V39.75H644.01V32.2H660.16V25.95H644.01V18.9H660.51V12.65H636.91V46H660.51ZM677.911 46.6C686.911 46.6 691.261 42 691.261 35.9C691.261 23.45 672.111 27 672.111 21.7C672.111 19.7 673.811 18.35 676.861 18.35C680.261 18.35 683.861 19.5 686.561 22L690.511 16.8C687.211 13.75 682.811 12.15 677.511 12.15C669.661 12.15 664.861 16.75 664.861 22.3C664.861 34.85 684.061 30.8 684.061 36.7C684.061 38.6 682.161 40.4 678.261 40.4C673.661 40.4 670.011 38.35 667.661 35.9L663.811 41.3C666.911 44.45 671.511 46.6 677.911 46.6Z" fill="#323941"/>
<defs>
<linearGradient id="paint0_linear_0_1" x1="783.5" y1="441" x2="783.5" y2="484" gradientUnits="userSpaceOnUse">
<stop stop-color="#009EFF"/>
<stop offset="1" stop-color="#007BCD"/>
</linearGradient>
<linearGradient id="paint1_linear_0_1" x1="543" y1="441" x2="543" y2="484" gradientUnits="userSpaceOnUse">
<stop stop-color="#009EFF"/>
<stop offset="1" stop-color="#007BCD"/>
</linearGradient>
<linearGradient id="paint2_linear_0_1" x1="295.5" y1="441" x2="295.5" y2="484" gradientUnits="userSpaceOnUse">
<stop stop-color="#009EFF"/>
<stop offset="1" stop-color="#007BCD"/>
</linearGradient>
<linearGradient id="paint3_linear_0_1" x1="57.5" y1="441" x2="57.5" y2="484" gradientUnits="userSpaceOnUse">
<stop stop-color="#009EFF"/>
<stop offset="1" stop-color="#007BCD"/>
</linearGradient>
<linearGradient id="paint4_linear_0_1" x1="776" y1="242" x2="776" y2="285" gradientUnits="userSpaceOnUse">
<stop stop-color="#009EFF"/>
<stop offset="1" stop-color="#007BCD"/>
</linearGradient>
<linearGradient id="paint5_linear_0_1" x1="536" y1="242" x2="536" y2="285" gradientUnits="userSpaceOnUse">
<stop stop-color="#009EFF"/>
<stop offset="1" stop-color="#007BCD"/>
</linearGradient>
<linearGradient id="paint6_linear_0_1" x1="296" y1="242" x2="296" y2="285" gradientUnits="userSpaceOnUse">
<stop stop-color="#009EFF"/>
<stop offset="1" stop-color="#007BCD"/>
</linearGradient>
<linearGradient id="paint7_linear_0_1" x1="63.5" y1="242" x2="63.5" y2="285" gradientUnits="userSpaceOnUse">
<stop stop-color="#009EFF"/>
<stop offset="1" stop-color="#007BCD"/>
</linearGradient>
<clipPath id="clip0_0_1">
<rect width="104" height="104" fill="white" transform="translate(730 439) rotate(-90)"/>
</clipPath>
<clipPath id="clip1_0_1">
<rect width="100" height="100" fill="white" transform="translate(493 335)"/>
</clipPath>
<clipPath id="clip2_0_1">
<rect width="100" height="100" fill="white" transform="translate(6 335)"/>
</clipPath>
<clipPath id="clip3_0_1">
<rect width="100" height="100" fill="white" transform="translate(485 142)"/>
</clipPath>
<clipPath id="clip4_0_1">
<rect width="90" height="90" fill="white" transform="translate(250 142)"/>
</clipPath>
<clipPath id="clip5_0_1">
<rect width="100" height="100" fill="white" transform="translate(14 141)"/>
</clipPath>
</defs>
</svg>